<svg width="64" height="87" viewBox="0 0 64 87" fill="none" xmlns="http://www.w3.org/2000/svg">
  <path d="M8.40702 14.5013C5.18066 9.37363 8.01818 3.12068 12.9155 0L32.053 36.114L51.1905 0C56.0879 3.12068 58.9254 9.37363 55.699 14.5013L36.3093 44.1419L44.4856 59.5771C47.3827 57.9481 50.7242 57.563 53.8636 58.4962C57.0031 59.4294 59.7176 61.6147 61.4819 64.6293C63.2463 67.6439 63.9353 71.2737 63.4156 74.8166C62.8959 78.3595 61.2045 81.5638 58.6684 83.8098C56.1324 86.0557 52.9319 87.1837 49.6861 86.9756C46.4402 86.7675 43.3796 85.238 41.0962 82.6831C38.8128 80.1281 37.4688 76.7292 37.3242 73.1437C37.1796 69.5581 38.2446 66.0408 40.3133 63.272L32.053 50.6385L23.7927 63.2662C25.8614 66.035 26.9264 69.5523 26.7818 73.1379C26.6372 76.7234 25.2933 80.1223 23.0098 82.6772C20.7264 85.2322 17.6658 86.7617 14.42 86.9698C11.1741 87.1779 7.97367 86.0499 5.43762 83.804C2.90157 81.558 1.21013 78.3538 0.690427 74.8108C0.170726 71.2679 0.859697 67.6381 2.62409 64.6235C4.38847 61.6089 7.10291 59.4236 10.2424 58.4904C13.3819 57.5572 16.7233 57.9423 19.6205 59.5713L27.7967 44.1419L8.40702 14.5013ZM21.5437 72.5064C21.5437 70.1988 20.7133 67.9857 19.2351 66.354C17.7569 64.7223 15.7521 63.8056 13.6617 63.8056C11.5713 63.8056 9.56644 64.7223 8.08828 66.354C6.61011 67.9857 5.77969 70.1988 5.77969 72.5064C5.77969 74.814 6.61011 77.0271 8.08828 78.6588C9.56644 80.2905 11.5713 81.2072 13.6617 81.2072C15.7521 81.2072 17.7569 80.2905 19.2351 78.6588C20.7133 77.0271 21.5437 74.814 21.5437 72.5064ZM58.3263 72.5064C58.3263 70.1988 57.4959 67.9857 56.0178 66.354C54.5396 64.7223 52.5348 63.8056 50.4443 63.8056C48.3539 63.8056 46.3491 64.7223 44.8709 66.354C43.3928 67.9857 42.5623 70.1988 42.5623 72.5064C42.5623 74.814 43.3928 77.0271 44.8709 78.6588C46.3491 80.2905 48.3539 81.2072 50.4443 81.2072C52.5348 81.2072 54.5396 80.2905 56.0178 78.6588C57.4959 77.0271 58.3263 74.814 58.3263 72.5064Z" fill="currentColor"/>
</svg>