<svg width="72" height="70" viewBox="0 0 72 70" fill="none" xmlns="http://www.w3.org/2000/svg">
<path fill-rule="evenodd" clip-rule="evenodd" d="M48.9056 6.86993C48.2248 5.72598 46.9748 5.01493 45.6155 4.99834C44.2562 4.98174 42.9882 5.66203 42.2781 6.78898L22.0085 38.9544L14.9347 28.5546C14.2205 27.5046 13.0122 26.873 11.7174 26.873H3.90597C1.77573 26.873 0.0488281 28.552 0.0488281 30.623C0.0488281 32.6941 1.77573 34.373 3.90597 34.373H9.64385L18.9154 48.004C19.6426 49.0732 20.8811 49.7071 22.1994 49.685C23.5176 49.6628 24.7329 48.9876 25.4216 47.8946L45.4723 16.0765L52.6437 28.1261C53.7108 29.9188 56.0704 30.5311 57.9141 29.4938C59.7578 28.4566 60.3878 26.1625 59.3207 24.3699L48.9056 6.86993ZM53.1148 41.6929C50.7824 39.6921 48.2948 38.607 45.8 38.41C42.6101 38.1582 39.7959 39.3928 37.7856 41.3181C33.8791 45.0595 32.5805 51.9744 37.5702 56.7994C37.5976 56.8259 37.6256 56.8519 37.6541 56.8769L51.3471 68.9759C52.3279 69.8424 53.8255 69.8424 54.8058 68.9759L68.4991 56.8769L68.5536 56.8274C73.5808 52.1179 72.3347 45.2397 68.4647 41.4977C66.4718 39.5704 63.6736 38.3241 60.4855 38.5361C57.9923 38.7018 55.4867 39.7418 53.1148 41.6929Z" fill="#FC8200"/>
</svg>
