<svg width="62" height="57" viewBox="0 0 62 57" fill="none" xmlns="http://www.w3.org/2000/svg">
<path d="M34.0649 1.21008C33.2938 0.435267 32.2481 0 31.1577 0C30.0674 0 29.0217 0.435267 28.2506 1.21008L0.918373 28.6779C0.727216 28.87 0.575583 29.0981 0.47213 29.3492C0.368676 29.6002 0.31543 29.8693 0.31543 30.141C0.31543 30.4127 0.368676 30.6818 0.47213 30.9328C0.575583 31.1838 0.727216 31.4119 0.918373 31.6041C1.30443 31.9921 1.82804 32.2101 2.37401 32.2101C2.64434 32.2101 2.91203 32.1566 3.16179 32.0526C3.41155 31.9486 3.63848 31.7962 3.82964 31.6041L31.1577 4.1321L58.4858 31.6041C58.8718 31.9921 59.3955 32.2101 59.9414 32.2101C60.4874 32.2101 61.011 31.9921 61.3971 31.6041C61.7831 31.216 62 30.6897 62 30.141C62 29.5922 61.7831 29.0659 61.3971 28.6779L51.7175 18.953V5.34307C51.7175 4.795 51.5009 4.26938 51.1153 3.88184C50.7298 3.49429 50.2068 3.27658 49.6615 3.27658H45.5496C45.0043 3.27658 44.4813 3.49429 44.0958 3.88184C43.7102 4.26938 43.4936 4.795 43.4936 5.34307V10.687L34.0649 1.21008Z" fill="#FC8200"/>
<path d="M31.1591 8.62012L55.8308 33.418V50.8055C55.8308 52.4497 55.181 54.0266 54.0243 55.1892C52.8675 56.3518 51.2987 57.005 49.6629 57.005H12.6552C11.0194 57.005 9.45056 56.3518 8.29385 55.1892C7.13714 54.0266 6.4873 52.4497 6.4873 50.8055V33.418L31.1591 8.62012Z" fill="#FC8200"/>
</svg>
