<svg width="51" height="69" viewBox="0 0 51 69" fill="none" xmlns="http://www.w3.org/2000/svg">
  <path d="M2.4408e-05 25.8755C-0.000107807 21.6028 1.04254 17.3965 3.03486 13.6323C5.02719 9.86811 7.90717 6.66311 11.4177 4.30351C14.9282 1.9439 18.9599 0.503131 23.1529 0.109848C27.3458 -0.283434 31.5695 0.383011 35.4468 2.04968C39.3241 3.71634 42.7343 6.33135 45.3729 9.6612C48.0115 12.9911 49.7963 16.9321 50.5681 21.1324C51.3398 25.3328 51.0744 29.6617 49.7956 33.7326C48.5168 37.8035 46.2644 41.4898 43.2395 44.4622C42.3768 45.3074 41.7138 46.1871 41.3143 47.1316L38.0758 54.7603C37.9114 55.1469 37.6391 55.4763 37.2925 55.7077C36.9458 55.9392 36.54 56.0625 36.125 56.0626H14.875C14.4593 56.0634 14.0526 55.9404 13.7051 55.7089C13.3576 55.4774 13.0846 55.1476 12.92 54.7603L9.68577 47.1273C9.2193 46.1213 8.56555 45.2163 7.76052 44.4622C5.30164 42.0528 3.347 39.1649 2.01356 35.9713C0.680126 32.7777 -0.00471269 29.3439 2.4408e-05 25.8755ZM12.75 62.5313C12.75 61.9595 12.9739 61.411 13.3724 61.0066C13.7709 60.6023 14.3114 60.3751 14.875 60.3751H36.125C36.6886 60.3751 37.2291 60.6023 37.6276 61.0066C38.0261 61.411 38.25 61.9595 38.25 62.5313C38.25 63.1032 38.0261 63.6516 37.6276 64.056C37.2291 64.4604 36.6886 64.6875 36.125 64.6875L35.173 66.6152C34.8203 67.3314 34.278 67.9339 33.607 68.3551C32.9359 68.7763 32.1626 68.9996 31.3735 69H19.6265C18.8375 68.9996 18.0641 68.7763 17.393 68.3551C16.722 67.9339 16.1797 67.3314 15.827 66.6152L14.875 64.6875C14.3114 64.6875 13.7709 64.4604 13.3724 64.056C12.9739 63.6516 12.75 63.1032 12.75 62.5313Z" fill="currentColor"/>
</svg>