<svg width="75" height="75" viewBox="0 0 75 75" fill="none" xmlns="http://www.w3.org/2000/svg">
<path d="M36.192 69.2673C31.3316 69.2673 24.1918 78.8437 14.1685 70.2252C8.24529 64.4924 9.15607 52.0302 21.6109 46.4442C26.6912 44.1657 25.4986 33.0376 37.5591 33.0376C49.71 33.0376 41.5081 38.5541 61.2535 52.19C68.8489 57.4353 62.6205 76.4494 48.3431 73.7365C44.8497 72.0408 40.4449 69.2673 36.192 69.2673Z" fill="#FC8200" stroke="#FC8200"/>
<path d="M7.87349 18.7386C9.56719 18.1302 11.5095 18.6219 13.3066 20.0447C15.0993 21.4642 16.6911 23.7748 17.6262 26.6494C18.5614 29.524 18.6489 32.375 18.0583 34.6506C17.4662 36.9316 16.2165 38.569 14.5228 39.1773C12.8292 39.7857 10.8871 39.295 9.09007 37.8722C7.29731 36.4527 5.70563 34.1421 4.77038 31.2675C3.83521 28.393 3.74779 25.5419 4.33834 23.2663C4.93039 20.9853 6.17986 19.3471 7.87349 18.7386Z" fill="#FC8200" stroke="#FC8200"/>
<path d="M26.329 1.31603C28.0571 1.12088 29.8737 2.25881 31.398 4.52117C32.9083 6.76299 34.0472 10.0015 34.4261 13.7056C34.805 17.41 34.347 20.8295 33.3244 23.3575C32.2924 25.9085 30.7474 27.426 29.0193 27.6212C27.2912 27.8163 25.4746 26.6784 23.9504 24.4161C22.44 22.1741 21.301 18.935 20.9221 15.2306C20.5433 11.5265 21.0014 8.10758 22.0239 5.57974C23.0559 3.02872 24.6009 1.51118 26.329 1.31603Z" fill="#FC8200" stroke="#FC8200"/>
<path d="M50.2493 1.39881C51.9753 1.61386 53.5048 3.14865 54.5101 5.71132C55.5063 8.25088 55.9284 11.6755 55.5109 15.3753C55.0935 19.0749 53.921 22.3002 52.3875 24.5246C50.8398 26.7692 49.011 27.8866 47.285 27.6716C45.5589 27.4565 44.0296 25.9208 43.0243 23.3581C42.0282 20.8186 41.606 17.3946 42.0234 13.695C42.4408 9.9952 43.6132 6.76922 45.147 4.54484C46.6946 2.30023 48.5233 1.18378 50.2493 1.39881Z" fill="#FC8200" stroke="#FC8200"/>
<path d="M67.9564 18.9526C69.6504 19.5721 70.8958 21.2033 71.4845 23.4565C72.072 25.705 71.9835 28.5129 71.0487 31.3352C70.1139 34.1577 68.524 36.4174 66.7348 37.7968C64.9421 39.1789 63.0022 39.6443 61.3082 39.0248C59.6145 38.4052 58.3694 36.7749 57.7807 34.5221C57.1931 32.2735 57.282 29.4649 58.2168 26.6424C59.1516 23.8201 60.7413 21.5613 62.5304 20.1818C64.323 18.7997 66.2625 18.3333 67.9564 18.9526Z" fill="#FC8200" stroke="#FC8200"/>
<path d="M46.16 49.9498C45.6108 49.3951 44.9586 48.9551 44.2408 48.6549C43.523 48.3547 42.7537 48.2002 41.9767 48.2002C41.1997 48.2002 40.4304 48.3547 39.7126 48.6549C38.9948 48.9551 38.3426 49.3951 37.7934 49.9498L36.6534 51.1005L35.5135 49.9498C34.404 48.8299 32.8992 48.2008 31.3302 48.2008C29.7611 48.2008 28.2563 48.8299 27.1469 49.9498C26.0374 51.0697 25.4141 52.5887 25.4141 54.1724C25.4141 55.7562 26.0374 57.2751 27.1469 58.3951L36.6534 67.9909L46.16 58.3951C46.7096 57.8406 47.1455 57.1823 47.4429 56.4578C47.7403 55.7333 47.8934 54.9567 47.8934 54.1724C47.8934 53.3882 47.7403 52.6116 47.4429 51.8871C47.1455 51.1625 46.7096 50.5043 46.16 49.9498Z" fill="#FC8200" stroke="white" stroke-width="3" stroke-linecap="round" stroke-linejoin="round"/>
</svg>
