<svg width="96" height="102" viewBox="0 0 96 102" fill="none" xmlns="http://www.w3.org/2000/svg">
  <path d="M82.2532 23.2112C83.0068 26.5555 83.036 30.055 82.3384 33.4482C81.6407 36.8415 80.2344 40.0408 78.2245 42.807L68.8129 29.5604L81.3844 20.2556C81.7309 21.2075 82.0205 22.1928 82.2532 23.2112Z" fill="currentColor"/>
  <path d="M65.0213 52.4764C68.1552 51.6069 70.9732 50.0814 73.3761 48.0719L63.4523 34.1862L55.8183 22.9288L72.4455 10.1301C68.1838 7.17046 63.0387 5.90116 57.8963 6.54078C52.7539 7.18041 47.9362 9.68891 44.273 13.6342C40.6099 17.5795 38.3306 22.7145 37.8279 28.1549C37.3252 33.5952 38.6305 39.0001 41.5189 43.4387L17.9447 77.2435C16.8825 78.7677 16.1269 80.5007 15.726 82.3318C15.3252 84.163 15.2879 86.0522 15.6166 87.879C15.9453 89.7058 16.6327 91.4302 17.635 92.942C18.6373 94.4539 19.9326 95.7202 21.4382 96.6601C22.9437 97.6 24.6266 98.1929 26.3794 98.4011C28.1323 98.6092 29.9167 98.428 31.6188 97.869C33.3209 97.3101 34.9035 96.3855 36.2655 95.1544C37.6276 93.9233 38.7392 92.4127 39.5296 90.7188L57.052 53.1359C59.7115 53.4256 62.4116 53.2022 65.0213 52.4764ZM53.8757 32.2367L52.0279 37.527L55.6043 35.0902C55.8233 34.9399 56.0796 34.8647 56.3371 34.8753C56.5946 34.8859 56.8403 34.9816 57.0397 35.1491C57.239 35.3165 57.3819 35.5473 57.4482 35.8087C57.5145 36.0702 57.5008 36.3492 57.4092 36.6065L55.5614 41.8968L59.1379 39.46L60.4348 41.6415L53.8028 46.1566C53.5842 46.3054 53.3288 46.3796 53.0724 46.3688C52.8159 46.358 52.5712 46.2626 52.3725 46.0961C52.1738 45.9296 52.0309 45.7003 51.964 45.4401C51.897 45.18 51.9093 44.9021 51.999 44.6454L53.8468 39.355L50.2704 41.7918C50.0514 41.9421 49.7951 42.0173 49.5376 42.0067C49.2801 41.9962 49.0344 41.9004 48.835 41.733C48.6357 41.5655 48.4928 41.3348 48.4265 41.0733C48.3602 40.8119 48.3738 40.5328 48.4655 40.2756L50.3133 34.9852L46.7368 37.422L45.4399 35.2405L52.0719 30.7255C52.2905 30.5766 52.5459 30.5024 52.8023 30.5132C53.0588 30.5241 53.3035 30.6194 53.5022 30.7859C53.7009 30.9524 53.8438 31.1818 53.9107 31.4419C53.9777 31.702 53.9654 31.9799 53.8757 32.2367ZM29.8967 88.9721C28.6239 89.3252 27.2837 89.1334 26.171 88.4388C25.0583 87.7441 24.2643 86.6036 23.9635 85.2681C23.6628 83.9326 23.88 82.5115 24.5674 81.3174C25.2548 80.1233 26.3561 79.2541 27.6289 78.901C28.9018 78.5479 30.242 78.7397 31.3547 79.4344C32.4674 80.129 33.2614 81.2695 33.5621 82.605C33.8629 83.9405 33.6456 85.3616 32.9582 86.5557C32.2708 87.7498 31.1696 88.619 29.8967 88.9721Z" fill="currentColor"/>
</svg>