<svg width="21" height="29" viewBox="0 0 21 29" fill="none" xmlns="http://www.w3.org/2000/svg">
<path d="M10.5 29C10.5 29 21 18.6941 21 10.875C21 7.99077 19.8938 5.22467 17.9246 3.18521C15.9555 1.14576 13.2848 0 10.5 0C7.71523 0 5.04451 1.14576 3.07538 3.18521C1.10625 5.22467 4.14964e-08 7.99077 0 10.875C0 18.6941 10.5 29 10.5 29ZM10.5 16.3125C9.10761 16.3125 7.77226 15.7396 6.78769 14.7199C5.80312 13.7002 5.25 12.3171 5.25 10.875C5.25 9.43289 5.80312 8.04984 6.78769 7.03011C7.77226 6.01038 9.10761 5.4375 10.5 5.4375C11.8924 5.4375 13.2277 6.01038 14.2123 7.03011C15.1969 8.04984 15.75 9.43289 15.75 10.875C15.75 12.3171 15.1969 13.7002 14.2123 14.7199C13.2277 15.7396 11.8924 16.3125 10.5 16.3125Z" fill="white"/>
</svg>
